# This file uses centimeters as units for non-parametric coordinates.

mtllib TestFloor.mtl
g default
v -1.500000 0.013764 1.500000
v -1.200000 0.013764 1.500000
v -0.900000 0.013764 1.500000
v -0.600000 0.013764 1.500000
v -0.300000 0.013764 1.500000
v 0.000000 0.013764 1.500000
v 0.300000 0.013764 1.500000
v 0.600000 0.013764 1.500000
v 0.900000 0.013764 1.500000
v 1.200000 0.013764 1.500000
v 1.500000 0.013764 1.500000
v -1.500000 0.013764 1.200000
v -1.200001 0.013764 1.200001
v -0.899999 0.013764 1.200001
v -0.600001 0.013764 1.200001
v -0.300000 0.013764 1.200001
v 0.000000 0.013764 1.200001
v 0.300000 0.013764 1.200001
v 0.600001 0.013764 1.200001
v 0.899999 0.013764 1.200001
v 1.200000 0.013764 1.200000
v 1.500000 0.013764 1.200000
v -1.500000 0.013764 0.900000
v -1.200001 0.013764 0.899999
v 1.200000 0.013764 0.900000
v 1.500000 0.013764 0.900000
v -1.500000 0.013764 0.600000
v -1.200001 0.013764 0.600001
v 1.200000 0.013764 0.600000
v 1.500000 0.013764 0.600000
v -1.500000 0.013764 0.300000
v -1.200001 0.013764 0.300000
v 1.200000 0.013764 0.300000
v 1.500000 0.013764 0.300000
v -1.500000 0.013764 0.000000
v -1.200001 0.013764 0.000000
v 1.200001 0.013764 0.000000
v 1.500000 0.013764 0.000000
v -1.500000 0.013764 -0.300000
v -1.200001 0.013764 -0.300000
v 1.200001 0.013764 -0.300000
v 1.500000 0.013764 -0.300000
v -1.500000 0.013764 -0.600000
v -1.200001 0.013764 -0.600001
v 1.200001 0.013764 -0.600001
v 1.500000 0.013764 -0.600000
v -1.500000 0.013764 -0.900000
v -1.200001 0.013764 -0.899999
v 1.200001 0.013764 -0.899999
v 1.500000 0.013764 -0.900000
v -1.500000 0.013764 -1.200000
v -1.200001 0.013764 -1.200001
v -0.899999 0.013764 -1.200001
v -0.600001 0.013764 -1.200001
v -0.300000 0.013764 -1.200001
v 0.000000 0.013764 -1.200001
v 0.300000 0.013764 -1.200001
v 0.600001 0.013764 -1.200001
v 0.899999 0.013764 -1.200001
v 1.200001 0.013764 -1.200001
v 1.500000 0.013764 -1.200000
v -1.500000 0.013764 -1.500000
v -1.200000 0.013764 -1.500000
v -0.900000 0.013764 -1.500000
v -0.600000 0.013764 -1.500000
v -0.300000 0.013764 -1.500000
v 0.000000 0.013764 -1.500000
v 0.300000 0.013764 -1.500000
v 0.600000 0.013764 -1.500000
v 0.900000 0.013764 -1.500000
v 1.200000 0.013764 -1.500000
v 1.500000 0.013764 -1.500000
v -1.162919 -0.013764 1.162919
v -0.872190 -0.013764 1.162919
v -0.872190 -0.013764 0.872190
v -1.162919 -0.013764 0.872190
v -0.581459 -0.013764 1.162919
v -0.581459 -0.013764 0.872190
v -0.290730 -0.013764 1.162919
v -0.290730 -0.013764 0.872190
v 0.000000 -0.013764 1.162919
v 0.000000 -0.013764 0.872190
v 0.290730 -0.013764 1.162919
v 0.290730 -0.013764 0.872190
v 0.581459 -0.013764 1.162919
v 0.581459 -0.013764 0.872190
v 0.872190 -0.013764 1.162919
v 0.872190 -0.013764 0.872190
v 1.162919 -0.013764 1.162919
v 1.162919 -0.013764 0.872190
v -0.872190 -0.013764 0.581459
v -1.162919 -0.013764 0.581459
v -0.581459 -0.013764 0.581459
v -0.290730 -0.013764 0.581459
v 0.000000 -0.013764 0.581459
v 0.290730 -0.013764 0.581459
v 0.581459 -0.013764 0.581459
v 0.872190 -0.013764 0.581459
v 1.162919 -0.013764 0.581459
v -0.872190 -0.013764 0.290730
v -1.162919 -0.013764 0.290730
v -0.581459 -0.013764 0.290730
v -0.290730 -0.013764 0.290730
v 0.000000 -0.013764 0.290730
v 0.290730 -0.013764 0.290730
v 0.581459 -0.013764 0.290730
v 0.872190 -0.013764 0.290730
v 1.162919 -0.013764 0.290730
v -0.872190 -0.013764 -0.000000
v -1.162919 -0.013764 -0.000000
v -0.581459 -0.013764 -0.000000
v -0.290730 -0.013764 -0.000000
v 0.000000 -0.013764 -0.000000
v 0.290730 -0.013764 -0.000000
v 0.581459 -0.013764 -0.000000
v 0.872190 -0.013764 -0.000000
v 1.162919 -0.013764 -0.000000
v -0.872190 -0.013764 -0.290730
v -1.162919 -0.013764 -0.290730
v -0.581459 -0.013764 -0.290730
v -0.290730 -0.013764 -0.290730
v 0.000000 -0.013764 -0.290730
v 0.290730 -0.013764 -0.290730
v 0.581459 -0.013764 -0.290730
v 0.872190 -0.013764 -0.290730
v 1.162919 -0.013764 -0.290730
v -0.872190 -0.013764 -0.581459
v -1.162919 -0.013764 -0.581459
v -0.581459 -0.013764 -0.581459
v -0.290730 -0.013764 -0.581459
v 0.000000 -0.013764 -0.581459
v 0.290730 -0.013764 -0.581459
v 0.581459 -0.013764 -0.581459
v 0.872190 -0.013764 -0.581459
v 1.162919 -0.013764 -0.581459
v -0.872190 -0.013764 -0.872190
v -1.162919 -0.013764 -0.872190
v -0.581459 -0.013764 -0.872190
v -0.290730 -0.013764 -0.872190
v 0.000000 -0.013764 -0.872190
v 0.290730 -0.013764 -0.872190
v 0.581459 -0.013764 -0.872190
v 0.872190 -0.013764 -0.872190
v 1.162919 -0.013764 -0.872190
v -0.872190 -0.013764 -1.162919
v -1.162919 -0.013764 -1.162919
v -0.581459 -0.013764 -1.162919
v -0.290730 -0.013764 -1.162919
v 0.000000 -0.013764 -1.162919
v 0.290730 -0.013764 -1.162919
v 0.581459 -0.013764 -1.162919
v 0.872190 -0.013764 -1.162919
v 1.162919 -0.013764 -1.162919
vt 0.000000 0.000000
vt 0.100000 0.000000
vt 0.200000 0.000000
vt 0.300000 0.000000
vt 0.400000 0.000000
vt 0.500000 0.000000
vt 0.600000 0.000000
vt 0.700000 0.000000
vt 0.800000 0.000000
vt 0.900000 0.000000
vt 1.000000 0.000000
vt 0.000000 0.100000
vt 0.100000 0.100000
vt 0.200000 0.100000
vt 0.300000 0.100000
vt 0.400000 0.100000
vt 0.500000 0.100000
vt 0.600000 0.100000
vt 0.700000 0.100000
vt 0.800000 0.100000
vt 0.900000 0.100000
vt 1.000000 0.100000
vt 0.000000 0.200000
vt 0.100000 0.200000
vt 0.200000 0.200000
vt 0.300000 0.200000
vt 0.400000 0.200000
vt 0.500000 0.200000
vt 0.600000 0.200000
vt 0.700000 0.200000
vt 0.800000 0.200000
vt 0.900000 0.200000
vt 1.000000 0.200000
vt 0.000000 0.300000
vt 0.100000 0.300000
vt 0.200000 0.300000
vt 0.300000 0.300000
vt 0.400000 0.300000
vt 0.500000 0.300000
vt 0.600000 0.300000
vt 0.700000 0.300000
vt 0.800000 0.300000
vt 0.900000 0.300000
vt 1.000000 0.300000
vt 0.000000 0.400000
vt 0.100000 0.400000
vt 0.200000 0.400000
vt 0.300000 0.400000
vt 0.400000 0.400000
vt 0.500000 0.400000
vt 0.600000 0.400000
vt 0.700000 0.400000
vt 0.800000 0.400000
vt 0.900000 0.400000
vt 1.000000 0.400000
vt 0.000000 0.500000
vt 0.100000 0.500000
vt 0.200000 0.500000
vt 0.300000 0.500000
vt 0.400000 0.500000
vt 0.500000 0.500000
vt 0.600000 0.500000
vt 0.700000 0.500000
vt 0.800000 0.500000
vt 0.900000 0.500000
vt 1.000000 0.500000
vt 0.000000 0.600000
vt 0.100000 0.600000
vt 0.200000 0.600000
vt 0.300000 0.600000
vt 0.400000 0.600000
vt 0.500000 0.600000
vt 0.600000 0.600000
vt 0.700000 0.600000
vt 0.800000 0.600000
vt 0.900000 0.600000
vt 1.000000 0.600000
vt 0.000000 0.700000
vt 0.100000 0.700000
vt 0.200000 0.700000
vt 0.300000 0.700000
vt 0.400000 0.700000
vt 0.500000 0.700000
vt 0.600000 0.700000
vt 0.700000 0.700000
vt 0.800000 0.700000
vt 0.900000 0.700000
vt 1.000000 0.700000
vt 0.000000 0.800000
vt 0.100000 0.800000
vt 0.200000 0.800000
vt 0.300000 0.800000
vt 0.400000 0.800000
vt 0.500000 0.800000
vt 0.600000 0.800000
vt 0.700000 0.800000
vt 0.800000 0.800000
vt 0.900000 0.800000
vt 1.000000 0.800000
vt 0.000000 0.900000
vt 0.100000 0.900000
vt 0.200000 0.900000
vt 0.300000 0.900000
vt 0.400000 0.900000
vt 0.500000 0.900000
vt 0.600000 0.900000
vt 0.700000 0.900000
vt 0.800000 0.900000
vt 0.900000 0.900000
vt 1.000000 0.900000
vt 0.000000 1.000000
vt 0.100000 1.000000
vt 0.200000 1.000000
vt 0.300000 1.000000
vt 0.400000 1.000000
vt 0.500000 1.000000
vt 0.600000 1.000000
vt 0.700000 1.000000
vt 0.800000 1.000000
vt 0.900000 1.000000
vt 1.000000 1.000000
vt 0.100000 0.100000
vt 0.200000 0.100000
vt 0.100000 0.200000
vt 0.300000 0.100000
vt 0.400000 0.100000
vt 0.500000 0.100000
vt 0.600000 0.100000
vt 0.700000 0.100000
vt 0.800000 0.100000
vt 0.900000 0.100000
vt 0.900000 0.200000
vt 0.100000 0.300000
vt 0.900000 0.300000
vt 0.100000 0.400000
vt 0.900000 0.400000
vt 0.100000 0.500000
vt 0.900000 0.500000
vt 0.100000 0.600000
vt 0.900000 0.600000
vt 0.100000 0.700000
vt 0.900000 0.700000
vt 0.100000 0.800000
vt 0.900000 0.800000
vt 0.200000 0.900000
vt 0.100000 0.900000
vt 0.300000 0.900000
vt 0.400000 0.900000
vt 0.500000 0.900000
vt 0.600000 0.900000
vt 0.700000 0.900000
vt 0.800000 0.900000
vt 0.900000 0.900000
vn 0.000000 1.000000 0.000000
vn -0.000000 1.000000 0.000000
vn -0.000000 1.000000 0.000000
vn -0.000000 1.000000 0.000000
vn 0.000000 1.000000 0.000000
vn 0.000000 1.000000 0.000000
vn 0.000000 1.000000 0.000000
vn 0.000000 1.000000 0.000000
vn 0.000000 1.000000 0.000000
vn 0.000000 1.000000 0.000000
vn 0.000000 1.000000 0.000000
vn 0.000000 1.000000 0.000000
vn 0.000000 1.000000 0.000000
vn 0.000000 1.000000 0.000000
vn 0.000000 1.000000 0.000000
vn 0.000000 1.000000 0.000000
vn 0.000000 1.000000 0.000000
vn -0.000000 1.000000 0.000000
vn -0.000000 1.000000 0.000000
vn 0.000000 1.000000 0.000000
vn 0.000000 1.000000 0.000000
vn 0.000000 1.000000 0.000000
vn -0.000000 1.000000 0.000000
vn -0.000000 1.000000 0.000000
vn 0.000000 1.000000 0.000000
vn 0.000000 1.000000 0.000000
vn 0.000000 1.000000 0.000000
vn 0.000000 1.000000 0.000000
vn 0.000000 1.000000 0.000000
vn 0.000000 1.000000 0.000000
vn 0.000000 1.000000 0.000000
vn 0.000000 1.000000 0.000000
vn 0.000000 1.000000 0.000000
vn 0.000000 1.000000 0.000000
vn 0.000000 1.000000 0.000000
vn 0.000000 1.000000 0.000000
vn 0.000000 1.000000 0.000000
vn 0.000000 1.000000 0.000000
vn 0.000000 1.000000 0.000000
vn 0.000000 1.000000 0.000000
vn 0.000000 1.000000 0.000000
vn 0.000000 1.000000 0.000000
vn 0.000000 1.000000 0.000000
vn 0.000000 1.000000 0.000000
vn -0.000000 1.000000 0.000000
vn 0.000000 1.000000 0.000000
vn 0.000000 1.000000 0.000000
vn 0.000000 1.000000 0.000000
vn 0.000000 1.000000 0.000000
vn 0.000000 1.000000 0.000000
vn 0.000000 1.000000 0.000000
vn 0.000000 1.000000 0.000000
vn 0.000000 1.000000 0.000000
vn 0.000000 1.000000 0.000000
vn 0.000000 1.000000 0.000000
vn 0.000000 1.000000 -0.000000
vn 0.000000 1.000000 -0.000000
vn 0.000000 1.000000 0.000000
vn 0.000000 1.000000 0.000000
vn 0.000000 1.000000 0.000000
vn 0.000000 1.000000 0.000000
vn 0.000000 1.000000 0.000000
vn 0.000000 1.000000 0.000000
vn 0.000000 1.000000 0.000000
vn 0.000000 1.000000 0.000000
vn 0.000000 1.000000 0.000000
vn 0.000000 1.000000 0.000000
vn 0.000000 1.000000 0.000000
vn 0.000000 1.000000 -0.000000
vn -0.000000 1.000000 -0.000000
vn 0.000000 1.000000 -0.000000
vn 0.000000 1.000000 -0.000000
vn 0.000000 1.000000 0.000000
vn 0.000000 1.000000 0.000000
vn 0.000000 1.000000 0.000000
vn 0.000000 1.000000 0.000000
vn 0.000000 1.000000 0.000000
vn 0.000000 1.000000 0.000000
vn 0.000000 1.000000 0.000000
vn 0.000000 1.000000 0.000000
vn 0.000000 1.000000 0.000000
vn -0.000000 1.000000 -0.000000
vn -0.000000 1.000000 0.000000
vn 0.000000 1.000000 -0.000000
vn 0.000000 1.000000 -0.000000
vn 0.000000 1.000000 0.000000
vn 0.000000 1.000000 0.000000
vn 0.000000 1.000000 0.000000
vn 0.000000 1.000000 0.000000
vn 0.000000 1.000000 0.000000
vn 0.000000 1.000000 0.000000
vn 0.000000 1.000000 0.000000
vn 0.000000 1.000000 0.000000
vn 0.000000 1.000000 0.000000
vn -0.000000 1.000000 0.000000
vn -0.000000 1.000000 0.000000
vn 0.000000 1.000000 0.000000
vn 0.000000 1.000000 0.000000
vn 0.000000 1.000000 0.000000
vn 0.000000 1.000000 0.000000
vn 0.000000 1.000000 0.000000
vn 0.000000 1.000000 0.000000
vn 0.000000 1.000000 0.000000
vn 0.000000 1.000000 0.000000
vn 0.000000 1.000000 0.000000
vn 0.000000 1.000000 0.000000
vn 0.000000 1.000000 0.000000
vn -0.000000 1.000000 0.000000
vn -0.000000 1.000000 -0.000000
vn 0.000000 1.000000 -0.000000
vn 0.000000 1.000000 -0.000000
vn 0.000000 1.000000 0.000000
vn 0.000000 1.000000 0.000000
vn 0.000000 1.000000 0.000000
vn 0.000000 1.000000 0.000000
vn 0.000000 1.000000 0.000000
vn 0.000000 1.000000 0.000000
vn 0.000000 1.000000 0.000000
vn 0.000000 1.000000 0.000000
vn 0.000000 1.000000 0.000000
vn -0.000000 1.000000 -0.000000
vn -0.000000 1.000000 -0.000000
vn 0.000000 1.000000 -0.000000
vn -0.000000 1.000000 0.000000
vn 0.000000 1.000000 0.000000
vn 0.000000 1.000000 0.000000
vn 0.000000 1.000000 0.000000
vn 0.000000 1.000000 0.000000
vn 0.000000 1.000000 0.000000
vn 0.000000 1.000000 0.000000
vn 0.000000 1.000000 0.000000
vn 0.000000 1.000000 0.000000
vn 0.000000 1.000000 0.000000
vn -0.000000 1.000000 0.000000
vn -0.000000 1.000000 0.000000
vn 0.000000 1.000000 0.000000
vn -0.000000 1.000000 0.000000
vn -0.000000 1.000000 0.000000
vn -0.000000 1.000000 0.000000
vn 0.000000 1.000000 0.000000
vn 0.000000 1.000000 0.000000
vn 0.000000 1.000000 0.000000
vn 0.000000 1.000000 0.000000
vn -0.000000 1.000000 0.000000
vn -0.000000 1.000000 0.000000
vn -0.000000 1.000000 0.000000
vn -0.000000 1.000000 0.000000
vn 0.000000 1.000000 0.000000
vn 0.000000 1.000000 0.000000
vn 0.000000 1.000000 0.000000
vn 0.000000 1.000000 0.000000
vn -0.000000 1.000000 0.000000
vn 0.000000 1.000000 0.000000
vn 0.000000 0.802939 -0.596061
vn 0.000000 0.802939 -0.596061
vn 0.000000 0.802939 -0.596061
vn 0.000000 0.802939 -0.596061
vn 0.596062 0.802938 0.000000
vn 0.596062 0.802939 0.000000
vn 0.596061 0.802939 0.000000
vn 0.596062 0.802938 0.000000
vn 0.000000 0.802939 -0.596061
vn 0.000000 0.802939 -0.596061
vn 0.000000 0.802939 -0.596061
vn 0.000000 0.802939 -0.596061
vn 0.000000 0.802939 -0.596061
vn 0.000000 0.802939 -0.596061
vn 0.000000 0.802939 -0.596061
vn 0.000000 0.802939 -0.596061
vn 0.000000 0.802939 -0.596061
vn 0.000000 0.802939 -0.596061
vn -0.000000 0.802939 -0.596062
vn 0.000000 0.802939 -0.596061
vn -0.000002 0.802931 -0.596072
vn -0.000002 0.802932 -0.596071
vn -0.596074 0.802930 0.000000
vn -0.596074 0.802929 0.000000
vn -0.596074 0.802930 0.000000
vn -0.596074 0.802930 0.000000
vn 0.596060 0.802940 0.000000
vn 0.596061 0.802939 0.000000
vn -0.596073 0.802930 -0.000000
vn -0.596073 0.802930 -0.000000
vn 0.596062 0.802938 0.000000
vn 0.596062 0.802938 0.000000
vn -0.596074 0.802930 -0.000001
vn -0.596073 0.802930 -0.000001
vn 0.596061 0.802939 -0.000000
vn 0.596060 0.802940 0.000000
vn -0.596059 0.802940 -0.000000
vn -0.596058 0.802941 0.000000
vn 0.596062 0.802938 -0.000000
vn 0.596062 0.802938 -0.000000
vn -0.596060 0.802940 0.000000
vn -0.596060 0.802940 0.000000
vn 0.596061 0.802939 0.000000
vn 0.596062 0.802939 0.000000
vn -0.596059 0.802941 0.000000
vn -0.596059 0.802941 0.000000
vn 0.596061 0.802939 0.000000
vn 0.596062 0.802939 0.000000
vn -0.596058 0.802941 0.000000
vn -0.596059 0.802941 0.000000
vn -0.000000 0.802941 0.596059
vn -0.000000 0.802941 0.596059
vn -0.000000 0.802941 0.596059
vn 0.000000 0.802941 0.596059
vn 0.596061 0.802939 0.000000
vn 0.596061 0.802939 0.000000
vn 0.000000 0.802941 0.596059
vn 0.000000 0.802941 0.596059
vn 0.000000 0.802941 0.596059
vn 0.000000 0.802941 0.596059
vn 0.000000 0.802941 0.596059
vn 0.000000 0.802941 0.596059
vn 0.000000 0.802941 0.596059
vn 0.000000 0.802941 0.596059
vn 0.000000 0.802941 0.596059
vn 0.000000 0.802941 0.596059
vn 0.000000 0.802941 0.596059
vn 0.000000 0.802941 0.596059
vn -0.596060 0.802940 0.000000
vn -0.596060 0.802940 0.000000
vn 0.000000 0.802941 0.596059
vn 0.000000 0.802941 0.596059
s 1
g TestFloor
usemtl initialShadingGroup
f 1/1/1 2/2/2 12/12/3
f 12/12/3 2/2/2 13/13/4
f 2/2/2 3/3/5 13/13/4
f 13/13/4 3/3/5 14/14/6
f 3/3/5 4/4/7 14/14/6
f 14/14/6 4/4/7 15/15/8
f 4/4/7 5/5/9 15/15/8
f 15/15/8 5/5/9 16/16/10
f 5/5/9 6/6/11 16/16/10
f 16/16/10 6/6/11 17/17/12
f 6/6/11 7/7/13 17/17/12
f 17/17/12 7/7/13 18/18/14
f 7/7/13 8/8/15 18/18/14
f 18/18/14 8/8/15 19/19/16
f 8/8/15 9/9/17 19/19/16
f 19/19/16 9/9/17 20/20/18
f 9/9/17 10/10/19 20/20/18
f 20/20/18 10/10/19 21/21/20
f 10/10/19 11/11/21 21/21/20
f 21/21/20 11/11/21 22/22/22
f 12/12/3 13/13/4 23/23/23
f 23/23/23 13/13/4 24/24/24
s 2
f 73/122/25 74/123/26 76/124/27
f 76/124/27 74/123/26 75/25/28
f 74/123/26 77/125/29 75/25/28
f 75/25/28 77/125/29 78/26/30
f 77/125/29 79/126/31 78/26/30
f 78/26/30 79/126/31 80/27/32
f 79/126/31 81/127/33 80/27/32
f 80/27/32 81/127/33 82/28/34
f 81/127/33 83/128/35 82/28/34
f 82/28/34 83/128/35 84/29/36
f 83/128/35 85/129/37 84/29/36
f 84/29/36 85/129/37 86/30/38
f 85/129/37 87/130/39 86/30/38
f 86/30/38 87/130/39 88/31/40
f 87/130/39 89/131/41 88/31/40
f 88/31/40 89/131/41 90/132/42
s 1
f 21/21/20 22/22/22 25/32/43
f 25/32/43 22/22/22 26/33/44
f 23/23/23 24/24/24 27/34/45
f 27/34/45 24/24/24 28/35/46
s 2
f 76/124/27 75/25/28 92/133/47
f 92/133/47 75/25/28 91/36/48
f 75/25/28 78/26/30 91/36/48
f 91/36/48 78/26/30 93/37/49
f 78/26/30 80/27/32 93/37/49
f 93/37/49 80/27/32 94/38/50
f 80/27/32 82/28/34 94/38/50
f 94/38/50 82/28/34 95/39/51
f 82/28/34 84/29/36 95/39/51
f 95/39/51 84/29/36 96/40/52
f 84/29/36 86/30/38 96/40/52
f 96/40/52 86/30/38 97/41/53
f 86/30/38 88/31/40 97/41/53
f 97/41/53 88/31/40 98/42/54
f 88/31/40 90/132/42 98/42/54
f 98/42/54 90/132/42 99/134/55
s 1
f 25/32/43 26/33/44 29/43/56
f 29/43/56 26/33/44 30/44/57
f 27/34/45 28/35/46 31/45/58
f 31/45/58 28/35/46 32/46/59
s 2
f 92/133/47 91/36/48 101/135/60
f 101/135/60 91/36/48 100/47/61
f 91/36/48 93/37/49 100/47/61
f 100/47/61 93/37/49 102/48/62
f 93/37/49 94/38/50 102/48/62
f 102/48/62 94/38/50 103/49/63
f 94/38/50 95/39/51 103/49/63
f 103/49/63 95/39/51 104/50/64
f 95/39/51 96/40/52 104/50/64
f 104/50/64 96/40/52 105/51/65
f 96/40/52 97/41/53 105/51/65
f 105/51/65 97/41/53 106/52/66
f 97/41/53 98/42/54 106/52/66
f 106/52/66 98/42/54 107/53/67
f 98/42/54 99/134/55 107/53/67
f 107/53/67 99/134/55 108/136/68
s 1
f 29/43/56 30/44/57 33/54/69
f 33/54/69 30/44/57 34/55/70
f 31/45/58 32/46/59 35/56/71
f 35/56/71 32/46/59 36/57/72
s 2
f 101/135/60 100/47/61 110/137/73
f 110/137/73 100/47/61 109/58/74
f 100/47/61 102/48/62 109/58/74
f 109/58/74 102/48/62 111/59/75
f 102/48/62 103/49/63 111/59/75
f 111/59/75 103/49/63 112/60/76
f 103/49/63 104/50/64 112/60/76
f 112/60/76 104/50/64 113/61/77
f 104/50/64 105/51/65 113/61/77
f 113/61/77 105/51/65 114/62/78
f 105/51/65 106/52/66 114/62/78
f 114/62/78 106/52/66 115/63/79
f 106/52/66 107/53/67 115/63/79
f 115/63/79 107/53/67 116/64/80
f 107/53/67 108/136/68 116/64/80
f 116/64/80 108/136/68 117/138/81
s 1
f 33/54/69 34/55/70 37/65/82
f 37/65/82 34/55/70 38/66/83
f 35/56/71 36/57/72 39/67/84
f 39/67/84 36/57/72 40/68/85
s 2
f 110/137/73 109/58/74 119/139/86
f 119/139/86 109/58/74 118/69/87
f 109/58/74 111/59/75 118/69/87
f 118/69/87 111/59/75 120/70/88
f 111/59/75 112/60/76 120/70/88
f 120/70/88 112/60/76 121/71/89
f 112/60/76 113/61/77 121/71/89
f 121/71/89 113/61/77 122/72/90
f 113/61/77 114/62/78 122/72/90
f 122/72/90 114/62/78 123/73/91
f 114/62/78 115/63/79 123/73/91
f 123/73/91 115/63/79 124/74/92
f 115/63/79 116/64/80 124/74/92
f 124/74/92 116/64/80 125/75/93
f 116/64/80 117/138/81 125/75/93
f 125/75/93 117/138/81 126/140/94
s 1
f 37/65/82 38/66/83 41/76/95
f 41/76/95 38/66/83 42/77/96
f 39/67/84 40/68/85 43/78/97
f 43/78/97 40/68/85 44/79/98
s 2
f 119/139/86 118/69/87 128/141/99
f 128/141/99 118/69/87 127/80/100
f 118/69/87 120/70/88 127/80/100
f 127/80/100 120/70/88 129/81/101
f 120/70/88 121/71/89 129/81/101
f 129/81/101 121/71/89 130/82/102
f 121/71/89 122/72/90 130/82/102
f 130/82/102 122/72/90 131/83/103
f 122/72/90 123/73/91 131/83/103
f 131/83/103 123/73/91 132/84/104
f 123/73/91 124/74/92 132/84/104
f 132/84/104 124/74/92 133/85/105
f 124/74/92 125/75/93 133/85/105
f 133/85/105 125/75/93 134/86/106
f 125/75/93 126/140/94 134/86/106
f 134/86/106 126/140/94 135/142/107
s 1
f 41/76/95 42/77/96 45/87/108
f 45/87/108 42/77/96 46/88/109
f 43/78/97 44/79/98 47/89/110
f 47/89/110 44/79/98 48/90/111
s 2
f 128/141/99 127/80/100 137/143/112
f 137/143/112 127/80/100 136/91/113
f 127/80/100 129/81/101 136/91/113
f 136/91/113 129/81/101 138/92/114
f 129/81/101 130/82/102 138/92/114
f 138/92/114 130/82/102 139/93/115
f 130/82/102 131/83/103 139/93/115
f 139/93/115 131/83/103 140/94/116
f 131/83/103 132/84/104 140/94/116
f 140/94/116 132/84/104 141/95/117
f 132/84/104 133/85/105 141/95/117
f 141/95/117 133/85/105 142/96/118
f 133/85/105 134/86/106 142/96/118
f 142/96/118 134/86/106 143/97/119
f 134/86/106 135/142/107 143/97/119
f 143/97/119 135/142/107 144/144/120
s 1
f 45/87/108 46/88/109 49/98/121
f 49/98/121 46/88/109 50/99/122
f 47/89/110 48/90/111 51/100/123
f 51/100/123 48/90/111 52/101/124
s 2
f 137/143/112 136/91/113 146/146/125
f 146/146/125 136/91/113 145/145/126
f 136/91/113 138/92/114 145/145/126
f 145/145/126 138/92/114 147/147/127
f 138/92/114 139/93/115 147/147/127
f 147/147/127 139/93/115 148/148/128
f 139/93/115 140/94/116 148/148/128
f 148/148/128 140/94/116 149/149/129
f 140/94/116 141/95/117 149/149/129
f 149/149/129 141/95/117 150/150/130
f 141/95/117 142/96/118 150/150/130
f 150/150/130 142/96/118 151/151/131
f 142/96/118 143/97/119 151/151/131
f 151/151/131 143/97/119 152/152/132
f 143/97/119 144/144/120 152/152/132
f 152/152/132 144/144/120 153/153/133
s 1
f 49/98/121 50/99/122 60/109/134
f 60/109/134 50/99/122 61/110/135
f 51/100/123 52/101/124 62/111/136
f 62/111/136 52/101/124 63/112/137
f 52/101/124 53/102/138 63/112/137
f 63/112/137 53/102/138 64/113/139
f 53/102/138 54/103/140 64/113/139
f 64/113/139 54/103/140 65/114/141
f 54/103/140 55/104/142 65/114/141
f 65/114/141 55/104/142 66/115/143
f 55/104/142 56/105/144 66/115/143
f 66/115/143 56/105/144 67/116/145
f 56/105/144 57/106/146 67/116/145
f 67/116/145 57/106/146 68/117/147
f 57/106/146 58/107/148 68/117/147
f 68/117/147 58/107/148 69/118/149
f 58/107/148 59/108/150 69/118/149
f 69/118/149 59/108/150 70/119/151
f 59/108/150 60/109/134 70/119/151
f 70/119/151 60/109/134 71/120/152
f 60/109/134 61/110/135 71/120/152
f 71/120/152 61/110/135 72/121/153
s 3
f 13/13/154 14/14/155 73/122/156
f 73/122/156 14/14/155 74/123/157
s 4
f 13/13/158 73/122/159 24/24/160
f 24/24/160 73/122/159 76/124/161
s 3
f 14/14/155 15/15/162 74/123/157
f 74/123/157 15/15/162 77/125/163
f 15/15/162 16/16/164 77/125/163
f 77/125/163 16/16/164 79/126/165
f 16/16/164 17/17/166 79/126/165
f 79/126/165 17/17/166 81/127/167
f 18/18/168 83/128/169 17/17/166
f 17/17/166 83/128/169 81/127/167
f 19/19/170 85/129/171 18/18/168
f 18/18/168 85/129/171 83/128/169
f 20/20/172 87/130/173 19/19/170
f 19/19/170 87/130/173 85/129/171
f 21/21/174 89/131/175 20/20/172
f 20/20/172 89/131/175 87/130/173
s 8
f 21/21/176 25/32/177 89/131/178
f 89/131/178 25/32/177 90/132/179
s 4
f 24/24/160 76/124/161 28/35/180
f 28/35/180 76/124/161 92/133/181
s 8
f 25/32/177 29/43/182 90/132/179
f 90/132/179 29/43/182 99/134/183
s 4
f 28/35/180 92/133/181 32/46/184
f 32/46/184 92/133/181 101/135/185
s 8
f 29/43/182 33/54/186 99/134/183
f 99/134/183 33/54/186 108/136/187
s 4
f 32/46/184 101/135/185 36/57/188
f 36/57/188 101/135/185 110/137/189
s 8
f 33/54/186 37/65/190 108/136/187
f 108/136/187 37/65/190 117/138/191
s 4
f 40/68/192 36/57/188 119/139/193
f 119/139/193 36/57/188 110/137/189
s 8
f 41/76/194 126/140/195 37/65/190
f 37/65/190 126/140/195 117/138/191
s 4
f 44/79/196 40/68/192 128/141/197
f 128/141/197 40/68/192 119/139/193
s 8
f 45/87/198 135/142/199 41/76/194
f 41/76/194 135/142/199 126/140/195
s 4
f 48/90/200 44/79/196 137/143/201
f 137/143/201 44/79/196 128/141/197
s 8
f 49/98/202 144/144/203 45/87/198
f 45/87/198 144/144/203 135/142/199
s 12
f 52/101/204 146/146/205 53/102/206
f 53/102/206 146/146/205 145/145/207
s 4
f 52/101/208 48/90/200 146/146/209
f 146/146/209 48/90/200 137/143/201
s 12
f 53/102/206 145/145/207 54/103/210
f 54/103/210 145/145/207 147/147/211
f 54/103/210 147/147/211 55/104/212
f 55/104/212 147/147/211 148/148/213
f 55/104/212 148/148/213 56/105/214
f 56/105/214 148/148/213 149/149/215
f 57/106/216 56/105/214 150/150/217
f 150/150/217 56/105/214 149/149/215
f 58/107/218 57/106/216 151/151/219
f 151/151/219 57/106/216 150/150/217
f 59/108/220 58/107/218 152/152/221
f 152/152/221 58/107/218 151/151/219
s 8
f 60/109/222 153/153/223 49/98/202
f 49/98/202 153/153/223 144/144/203
s 12
f 60/109/224 59/108/220 153/153/225
f 153/153/225 59/108/220 152/152/221
