# This file uses centimeters as units for non-parametric coordinates.

mtllib TestWall.mtl
g default
v -0.493490 -0.500000 -0.500000
v 0.506510 0.500000 -0.500000
v -0.460933 0.428275 -0.500000
v 0.506510 0.500000 0.500000
v -0.460933 0.428275 0.500000
v -0.493490 -0.500000 0.500000
v -0.375881 0.481366 -0.500000
v -0.375881 0.481366 0.500000
v -0.493490 0.221489 -0.500000
v -0.493490 0.221489 0.500000
v -0.500000 0.334732 -0.500000
v -0.500000 0.334732 0.500000
v -0.162483 0.500000 -0.500000
v -0.162483 0.500000 0.500000
vt 0.625000 0.000000
vt 0.375000 0.250000
vt 0.625000 0.250000
vt 0.375000 0.500000
vt 0.625000 0.500000
vt 0.875000 0.000000
vt 0.875000 0.250000
vt 0.578878 0.250000
vt 0.578878 0.500000
vt 0.625000 0.180372
vt 0.875000 0.180372
vt 0.625000 0.203259
vt 0.875000 0.203259
vt 0.542248 0.250000
vt 0.542248 0.500000
vn 0.000000 1.000000 0.000000
vn -0.021112 0.999777 -0.000000
vn 0.000000 1.000000 0.000000
vn -0.021112 0.999777 -0.000000
vn -0.987832 0.155524 -0.000000
vn -0.987832 0.155525 -0.000000
vn -0.763273 0.646076 -0.000000
vn -0.763273 0.646077 -0.000000
vn -0.233670 0.972316 -0.000000
vn -0.233670 0.972316 -0.000000
vn -1.000000 0.000000 -0.000000
vn -1.000000 0.000000 -0.000000
vn -0.999970 -0.007799 -0.000000
vn -0.999970 -0.007799 -0.000000
s 1
g TestWall
usemtl initialShadingGroup
f 2/2/1 13/14/2 4/4/3
f 4/4/3 13/14/2 14/15/4
f 11/12/5 12/13/6 3/3/7
f 3/3/7 12/13/6 5/7/8
f 7/8/9 3/3/7 8/9/10
f 8/9/10 3/3/7 5/5/8
f 1/1/11 6/6/12 9/10/13
f 9/10/13 6/6/12 10/11/14
f 9/10/13 10/11/14 11/12/5
f 11/12/5 10/11/14 12/13/6
f 13/14/2 7/8/9 14/15/4
f 14/15/4 7/8/9 8/9/10
